<?xml version="1.0" encoding="UTF-8"?>
<svg id="_图层_2" data-name="图层 2" xmlns="http://www.w3.org/2000/svg" viewBox="0 0 96.91 32.19">
  <defs>
    <style>
      .cls-1 { fill: #007ed3; }
      .cls-2 { fill: #20ade5; }
    </style>
  </defs>
  <g id="_图层_1-2" data-name="图层 1">
    <g>
      <g>
        <path class="cls-2" d="M21.92,0h-9.72v9.98h9.97v22.21h1.09c5.04,0,8.88-3.82,8.88-8.87V1.12c0-.72-.4-1.12-1.12-1.12h-9.11Z"/>
        <path class="cls-1" d="M19.97,12.2h-9.98V0h-1.11C3.84,0,0,3.86,0,8.9v21.99c0,.72.58,1.3,1.3,1.3h8.68v-9.99h9.98v-10Z"/>
      </g>
      <g>
        <g>
          <path class="cls-1" d="M62.05,10.52h-2.74c-.32,0-.27.29-.27.29l.34,11.09s.16,1.24,1.11,1.24h1.95c.25,0,.26-.24.26-.24l-.37-12.12s-.03-.27-.28-.27Z"/>
          <path class="cls-1" d="M52.86,6.24h-3.21v-1.92c0-.15-.08-.24-.21-.24h-2.81c-.34,0-.27.28-.27.28v1.87h-3.29s-.99.03-.99,1.02v19.32s-.02.21.16.21h1.58s1.55-.03,1.55-2V8.5h.99v19.37s0,.24.18.24h1.54s1.57,0,1.57-1.67V8.5h.33c.63,0,.57.6.57.6v17.37s-.05.32.23.32h1.31c1.81,0,1.75-2.09,1.75-2.09V7.31c0-1.07-.98-1.07-.98-1.07Z"/>
          <path class="cls-1" d="M67.28,25.82c-.86,0-.79-.92-.79-.92V5.88s.02-1.82-1.95-1.82h-8.52s-1.22-.11-1.22,1.29v22.42c0,.2.11.3.28.3h1.2c1.77,0,1.81-2.07,1.81-2.07V6.9s-.14-.58.54-.58c1.05,0,3.39,0,3.96,0,.64,0,.62.64.62.64v19.13s.11,1.98,1.7,1.98h2.34c.35,0,.35-.37.35-.37v-1.52s0-.37-.31-.37Z"/>
        </g>
        <g>
          <path class="cls-1" d="M95.37,6.71h-6.98c-.54,0-.39-.34-.39-.34.03-.06.07-.16.09-.23l.63-1.93c.02-.07-.02-.12-.08-.12h-3.45c-.07,0-.14.05-.16.12l-.98,3.02c-.02.07-.05.17-.07.24,0,0-.35,1.5,1.25,1.5h7.47c.55,0,.53.48.53.48,0,.07,0,.18,0,.25v4.54c0,.07.06.12.12.12h3.45c.07,0,.12-.05.12-.12v-6.1c0-.07,0,1.03,0-.25s-1.47-1.18-1.54-1.18Z"/>
          <path class="cls-1" d="M82.91,23.86c.07,0,.12-.06.12-.12v-2.01c0-.07-.05-.12-.12-.12h-2.37v-3.48h2.37c.07,0,.12-.06.12-.12v-2.01c0-.07-.05-.12-.12-.12h-2.37v-4.93c0-.07-.06-.12-.12-.12h-3.45c-.07,0-.12.05-.12.12v4.93h-.86c-.45,0-.41-.46-.41-.46,0-.07.02-.18.04-.24l1.19-6.19h6.11c.07,0,.12-.05.12-.12v-2.01c0-.07-.05-.12-.12-.12h-5.68l.48-2.5c.01-.07-.03-.12-.1-.12h-3.45c-.07,0-.13.05-.15.12l-.48,2.5h-2.07c-.07,0-.12.05-.12.12v2.01c0,.07.05.12.12.12h1.63l-1.44,7.5c-.01.07-.03.18-.04.24,0,0-.21,1.42,1.15,1.42h2.15c.07,0,.12,0,.12,0,0,0,.06,0,.13,0h1.68v3.48h-5.37c-.07,0-.12.05-.12.12v2.01c0,.07.05.12.12.12h5.37v4.15c0,.07.05.12.12.12h2.1c1.38,0,1.47-1.47,1.47-1.47,0-.07,0-.18,0-.25v-2.55h2.37Z"/>
          <path class="cls-1" d="M96.37,25.85h-.38c-.47,0-.57-.35-.57-.35-.02-.06-.04-.17-.06-.24l-1.93-8.96c-.02-.06-.08-.12-.15-.12h-3.36c.79-3.47.69-5.24.69-5.24,0-.07-.06-.12-.13-.12h-3.45c-.07,0-.12.05-.12.12,0,0,.16,3.62-1.41,8.36-1.39,4.22-3.34,8.72-3.34,8.72-.02.06,0,.12.08.12h2.86c.07,0-.33,0,.25,0s.76-.66.79-.73c0,0,1.66-3.97,2.87-7.82.35-1.1.6-2.06.81-2.95l2.24,10.38c.01.07.05.17.07.23,0,0,.32.86,1.18.86h.47s.06,0,.12,0h2.59c.43,0,.4-.42.4-.48v-1.27c0-.07.03-.51-.52-.51Z"/>
        </g>
      </g>
    </g>
  </g>
</svg>
